<svg xmlns="http://www.w3.org/2000/svg" width="26.667" height="24" viewbox="0 0 26.667 24">
    <g id="_014-mail" data-name="014-mail" transform="translate(0 -21.833)">
        <path id="Path_1962" data-name="Path 1962" d="M26.373,26.526A6.667,6.667,0,0,0,20,21.833H6.667A6.667,6.667,0,0,0,.293,26.526,6.931,6.931,0,0,0,0,28.5V39.166a6.669,6.669,0,0,0,6.667,6.667H20a6.669,6.669,0,0,0,6.667-6.667V28.5A6.928,6.928,0,0,0,26.373,26.526ZM6.667,24.5H20a4.011,4.011,0,0,1,3.947,3.36L13.333,33.646,2.72,27.86A4.011,4.011,0,0,1,6.667,24.5ZM24,39.166a4.012,4.012,0,0,1-4,4H6.667a4.012,4.012,0,0,1-4-4V30.873L12.693,36.34a1.357,1.357,0,0,0,1.28,0L24,30.873Z" transform="translate(0 0)" fill="#135846"></path>
    </g>
</svg>