<svg xmlns="http://www.w3.org/2000/svg" width="19.375" height="24" viewbox="0 0 19.375 24">
	<g id="_006-notification" data-name="006-notification" transform="translate(-341.252 -61.547)">
	    <path id="Path_1954" data-name="Path 1954" d="M349.741,65.233V62.747a1.2,1.2,0,1,1,2.4,0v2.486a8.4,8.4,0,0,1,7.2,8.314v4.517l.971,1.942a3,3,0,0,1-2.683,4.342h-5.488a1.2,1.2,0,1,1-2.4,0h-5.488a3,3,0,0,1-2.683-4.342l.971-1.942V73.547a8.4,8.4,0,0,1,7.2-8.314Zm1.2,2.314a6,6,0,0,0-6,6v4.8a1.208,1.208,0,0,1-.127.536l-1.1,2.195a.6.6,0,0,0,.538.869h13.375a.6.6,0,0,0,.536-.869l-1.1-2.195a1.206,1.206,0,0,1-.126-.536v-4.8a6,6,0,0,0-6-6Z" transform="translate(0 0)" fill="#135846" fill-rule="evenodd"></path>
	</g>
</svg>